<?xml version="1.0" encoding="UTF-8"?>
<svg id="svg" xmlns="http://www.w3.org/2000/svg" version="1.1" xmlns:xlink="http://www.w3.org/1999/xlink"
  viewBox="0 0 400 400">
  <!-- Generator: Adobe Illustrator 29.3.1, SVG Export Plug-In . SVG Version: 2.1.0 Build 151)  -->
  <defs>
    <style>
      .st0 {
        fill: #2996c0;
      }

      .st0,
      .st1,
      .st2,
      .st3,
      .st4,
      .st5 {
        fill-rule: evenodd;
      }

      .st1 {
        fill: #dfdede;
      }

      .st2 {
        fill: #da2e34;
      }

      .st3 {
        fill: #363b3b;
      }

      .st4 {
        fill: #f8cd34;
      }

      .st5 {
        fill: #f3e08a;
      }
    </style>
  </defs>
  <g id="svgg">
    <path id="path0" class="st0"
      d="M141.6,143.5c-7.2,1.1-15.4,6.3-19.6,12.6-2.1,3-4.8,8.6-4.8,9.9s-.3,1.6-.6,2.4c-.7,1.6-1.6,6.5-2.2,12-.2,2-.7,5.7-1,8.2-.3,2.5-.9,6.5-1.2,8.8-.3,2.3-.8,6.4-1.2,9-.8,6.5-1.8,13.8-2.4,19.6-.3,2.6-.9,7.4-1.4,10.5-1,6.9-1,7.9-.2,8.2,1,.4,190.7.3,191.1,0,.2-.2.2-.8,0-1.3-.2-.5-.8-3.7-1.2-7-.5-3.3-1.1-7.5-1.4-9.4-.5-3.1-.9-5.5-2.8-18.4-.9-6-2.1-14.1-2.8-18-.3-1.9-1.1-7-1.8-11.4-3.1-20.8-11.8-32.7-25.8-35.2-3-.5-117.3-.8-120.6-.3" />
    <path id="path1" class="st1"
      d="M194.9,41.2c-.2.7-.7.8-10.6.8s-10.4,0-11.8,1c-1.2.8-1.3,1-.8,1.3.4.1.9,0,1.2-.2.5-.5,22.9-.6,23.3-.1.1.2.2,4.3.2,9.2,0,10.5-.5,9.7,6.3,9.4h1.7c0,0,0-9,0-9,0-4.9.2-9.1.3-9.4.3-.4,2.7-.5,11.6-.4,7.2,0,11.3,0,11.4-.3,0-.2.2,0,.2.3,0,.4.3.7.6.7,1.6,0,5.4,3.6,5.4,5.2s.1.4.3.4c.5,0,.1,5.7-.5,7.4-1.7,4.5-6.1,6.2-15,5.7-5.6-.3-5.2-.6-5.2,4.1v4h-13.5c0-.1-13.5-.2-13.5-.2v-3.6c0-4.3,0-4.4-4.4-4.2-4.6.2-5.4.1-7.7-.2-2-.3-2.1-.3-2.1.5s.2.9,1.2.9,1.2.2,1.2.8c0,1.2,1.9,1.1,2.1,0,0-.5.3-.9.4-.8.2,0,2.1,0,4.3,0h4v6.4h-27.3c-30.1.1-28.1,0-28.5.5-.2.2-1,.3-1.8.3s-1.5.2-1.5.4-.7.4-1.6.4-1.6.2-1.6.4-.4.4-.8.4-1,.4-1.3.8-.8.8-1.2.8-.7.2-.7.4-.4.5-1,.6c-.5.1-1,.4-1,.6s-.4.4-1,.6c-.5.1-1,.4-1,.7,0,.5-1.5,2-2.5,2.6-.4.2-1.1,1.1-1.6,2-.5.9-1.3,1.9-1.8,2.3-.5.4-.9,1.1-.9,1.5,0,.9-.9,1.9-1.7,1.9-.7,0-1.5,1.9-1.5,3.5s-.2,1.2-.4,1.1c-.2-.1-.4.2-.4.8s.1,1,.3,1c.5,0,1.3-.9,1.3-1.6s1.1-3,1.8-3.6c.4-.4,24-.5,96.3-.4h95.7s.6.8.6.8c.3.4.9,1.6,1.1,2.6.6,1.9,1.2,2.4,1.2.8s-.2-1-.5-1-.5-.4-.4-1.3c.1-1.1-.1-1.6-1.4-3-1.7-1.9-2.5-3.1-2.5-3.8s-.4-.8-.8-1.1c-.4-.3-.8-.8-.8-1.1s-.2-.5-.4-.5c-.5,0-3.6-3.1-3.6-3.6s-.3-.5-1.1-.4c-.1,0-.4-.2-.6-.6-.2-.3-1.2-1-2.1-1.4-1-.4-1.8-1-1.8-1.3s-.4-.5-.9-.6c-.5,0-1-.3-1-.5,0-.2-.7-.4-1.3-.4s-1.3-.2-1.4-.4c-.1-.2-1-.4-2-.4s-1.8-.2-1.8-.4-10.9-.4-32-.4h-32v-1.2c0-.7.2-1.6.4-2,.3-.6.3-.9,0-1.3-1.4-1.4-.6-1.8,4-2,4.1-.1,6,.1,4.7.6-1.2.4.2,1.1,2.1,1.1s2,0,1.8-.8c-.1-.5,0-.8.4-.8s.6-.2.6-.4c0-.5,1.9-.5,2.2,0,.1.2.4.3.6.2.5-.3.5-1.8,0-1.8s0-.5.6-1c.5-.6,1.3-1,1.6-1s.6-.2.6-.4.3-.3.6-.2c.8.3,1.2-.9.5-1.7-.4-.5-.4-.7,0-.8.6-.2.7-7.1,0-7.5-.2-.1-.4-1.4-.4-2.8,0-2.7-.8-3.5-2.6-2.8-.8.3-.8,0,.2-1.2,1.3-1.6.5-2.5-2.2-2.4-1.2,0-2.3.2-2.4.4-.1.2-.7.3-1.2.3s-1,.2-1,.4-3.5.4-9.8.4c-9.7,0-9.8,0-9.5-.8.2-.7,0-.8-.9-.7-.9.1-1.1.3-1,.9.1.7-.5,1.4-1.2,1.4-.1,0-.4-.5-.5-1.2l-.3-1.2h-3.6c-3.2,0-3.6,0-3.8.8M167.3,44.1c-.3.3-.5,1.3-.5,2.2s-.2,1.7-.4,1.7-.4.6-.4,1.4c0,1.7.6,1.8,1,.2.1-.7,1.1-2,2-3,1.7-1.7,2.2-2.6,1.4-2.6s-.5.3-.6.7c-.3.6-.3.6-.6-.2-.4-1-1.2-1.2-1.9-.4M163.2,50.5c-.5.6-.2,1.7.6,2,.3.1.6.6.6,1,0,1.1,1.4,2.3,1.8,1.5,1-2.6-1.4-6.3-2.9-4.4M166,56.4c0,.2-.2.3-.4.2-.7-.4-2,.6-2,1.6,0,1.9.4,2.2,2.3,2.2,1.2,0,1.7.1,1.3.3-.3.2-.5.8-.4,1.3.2,1.1,1.8,1.6,2.2.6.3-.9,1.6-.8,1.9.2.1.4.4.8.6.8s.4-.4.4-.8c0-.4-.2-.8-.4-.8-.7,0-3.9-3.4-4.4-4.7-.5-1.3-1.1-1.8-1.1-.9M302.8,96.1c0,1.4,2,2.7,2.8,1.7.9-1.1.2-2.5-1.4-2.7-1.3-.2-1.4,0-1.4.9M103.9,95.9c-.1.1-.3,1.5-.3,3.1,0,1.9-.1,2.6-.4,2.2-.3-.5-.5-.5-1.1.1s-.7.7,0,1.4.7.6,1.1.1c.3-.4.4,0,.4,1.3,0,1-.2,2-.4,2.1-.2.1-.4,2.7-.4,5.7,0,3.1-.2,5.6-.4,5.6-.2,0-.4.6-.4,1.3s-.2,1.2-.3,1.4c-.2.1-.4,2.9-.4,6.1,0,3.3-.2,6.1-.4,6.3-.2.2-.4,3-.4,6.5s-.2,6.2-.4,6.3c-.2.1-.4,2.5-.4,5.8s-.2,5.6-.4,5.6-.4,2.1-.4,5.5c0,4.9,0,5.6-.7,6.2-.7.6-.8,1.3-.8,6.9,0,3.5-.2,6.5-.4,6.7-.2.3-.4,2.9-.4,5.8,0,2.9-.2,5.6-.4,6-.2.4-.4,3.2-.4,6.2,0,3.1-.2,5.8-.4,6.2-.2.4-.4,2.3-.4,4.2,0,3.7-.2,4.4-.8,3.4-.2-.3-.5-.4-.8-.3-.2.2-.6,0-.7-.3-.1-.3-.6-.6-1-.6s-.8-.2-.8-.4-.4-.4-.9-.4-1.1-.3-1.3-.6c-.2-.3-1-.7-1.6-.7-.7,0-1.7-.4-2.4-.6-2.7-1.1-11.4,0-11.4,1.5,0,.3-.4.6-.8.7-.5.2-.8.6-.8,1.2s-.4,1.2-.8,1.6c-1.1,1-1.2,5.9,0,6.8.6.5.8,1.3.8,3.9,0,1.8.2,3.3.5,3.4.2,0,.4,1.1.4,2.3s.2,2.2.4,2.2.4.6.4,1.3c0,1.7.8,3.4,1.7,3.7.4.1.7.5.7.8s.3.6.8.6.8.2.9.4c.2.6,2.9.9,9.3,1.1,6,.2,7.2.5,5.9,1.8-.3.3-.5,2.2-.5,5.2v4.8l-2,2-2,2v8.2c0,5.2.1,8.2.4,8.2s.4,2.9.4,8,.2,8.1.4,8.2c.2.2.4,3.4.4,8.3,0,7.8.4,10.9,1.3,11.6.3.2.3.3,0,.3-.6,0-.7,1.3-.1,1.8.2.2.5,3.4.6,7,.4,12.6,1.3,30.9,1.6,32,.2.5,12.6.6,109.6.5h109.4c0-.1,0,1.3,0,1.3,0,.8-.2,1.4-.4,1.4s-.4.4-.4.8-.2.8-.4.8-.4.3-.4.6c0,1.1,1.1.6,1.8-.7.3-.7.6-2,.6-3s.1-1.7.3-1.7.4-.9.4-1.9c0-1,.3-2.1.5-2.3.2-.2.4-2.7.4-5.5s.2-5.1.4-5.1c.5,0,.8-3.4,1-9.8,0-2.9.3-5.7.4-6.2.3-1.2.9-10.1,1.2-18.4.1-3.2.4-6,.6-6.2.2-.2.4-2.1.4-4.2s.2-4,.3-4.2c.6-.6,1.2-8,1.2-13.1,0-2.6.2-5,.4-5.4.2-.4.4-3.2.4-6.2,0-6.2-.3-7.3-3.2-9.8l-1.6-1.4v-3.3c0-1.8-.2-3.4-.4-3.6s-.4-.7-.4-1.2-.2-1.1-.4-1.2-.4-1.1-.4-2v-1.8h5.5c3,0,6.2,0,7.2,0,.9,0,1.8-.2,1.9-.4.1-.2.6-.4,1-.4,1.3,0,4-3.7,4-5.4s.3-.9.7-1.3c.6-.6.8-1.4.8-3.5,0-1.5.2-2.9.4-3.2.2-.2.5-1.9.6-3.6.1-1.8.3-4.3.4-5.7,0-1.4,0-2.6-.2-2.7-.2-.1-.4-.7-.4-1.2s-.3-1.1-.7-1.2c-.4-.1-1.2-.8-1.9-1.4-.7-.7-1.6-1.1-2.3-1.1s-1.2-.2-1.4-.4c-.1-.2-1.4-.4-2.8-.4s-2.7.2-2.8.4c-.1.2-1,.4-2,.4s-1.9.2-2.1.7c-.2.4-1.3.9-2.8,1.2-1.3.3-2.8.9-3.2,1.3-1.3,1.2-1.6.9-1.6-1.6s-.2-2.4-.4-2.4-.4-2.5-.4-6.7c0-6.2,0-6.8-.8-7.6-.7-.8-.8-1.4-.8-6.3s-.2-5.5-.4-5.6c-.2-.1-.4-2.4-.4-5.5s-.2-5.5-.4-5.7c-.2-.2-.4-3.4-.5-7-.3-11.7-.7-19-1.1-19.4-.5-.6-.8-3.2-.9-7.4,0-2.1-.2-4.2-.4-4.7-.2-.5-.3-3.3-.4-6.2,0-2.9-.2-5.6-.4-6-.2-.4-.4-3.3-.4-6.6,0-3.3-.2-6.3-.4-6.8-.3-.7-.3-1.3.3-2.5.7-1.6.7-3.1,0-3.1s-.6-.1-.7-.3c-.2-.2-.7,0-1.2.3-.8.5-13.3.6-99.2.6-107.1,0-100.1.1-99.1-2.2.4-1-.2-2.2-.8-1.6M264.2,143.7c12.7,3.8,21.6,15.7,23.8,31.9.9,6.6,1.2,8.7,2.4,16.2.7,4.2,1.4,8.7,1.6,10,.2,1.3.8,5,1.2,8.2s1.4,9.1,2,13.2c.6,4.1,1.5,10,2,13.2.5,3.2,1.1,6.4,1.5,7.1.3.7.5,1.4.4,1.6-.4.6-192.2.3-192.8-.3s.3-7.6,2.3-22.2c.3-2.2.9-7.2,1.4-11,.5-3.9,1.4-10.9,2-15.6.6-4.7,1.6-12.2,2.2-16.6,2.6-20.8,11.1-32.9,25.4-36,4.4-1,121.3-.7,124.6.3M213.6,294.4c20.2,1.7,41.2,7.4,46.9,12.8l1.9,1.8-1.8,4.2c-9.7,22.5-14.7,33.2-16,34.5l-.9.9-39.2-.2c-30.4-.2-39.4-.4-39.8-.7-1.1-.9-5.5-10.7-8.5-18.9-.4-1.1-1.3-3.5-2-5.4-2.5-6.6-6-17-6-17.7,0-2.4,9.3-6.4,18.3-7.9,1.2-.2,5.1-.9,8.5-1.5,11.8-2,27.4-2.8,38.8-1.8M126.3,303.7c2.2.4,3.1.7,3.5,1.4.3.5.9.9,1.3.9.7,0,5.1,3.6,5.8,4.7.2.3.8,1,1.3,1.6.5.6,1,1.3,1,1.7s.3,1.2.8,1.8c3.6,5.9,0,21.4-5.5,24.2-.8.4-1.7,1-2,1.4-2.2,2.6-11,3.9-15.8,2.2-3.4-1.2-10.2-5.8-10.2-6.9s-.5-1.2-1.2-2.2c-.6-1-1.4-2.7-1.6-3.8s-.6-2.3-.8-2.7c-.3-.5-.3-2.4,0-5.8.4-5.2.4-5.1,3.3-10.2,1.8-3.1,8.7-7.9,11.7-8,.7,0,1.7-.2,2.2-.4,1.5-.5,3-.4,6.3.1M292,304.3c.8.3,2.1,1.2,3,1.9.9.7,1.9,1.5,2.3,1.7,5.9,3.3,9.3,16.9,5.9,23.5-.4.8-.8,1.8-.8,2.1s-.4,1.1-1,1.7c-.5.7-1,1.3-1,1.5,0,1-4.7,4.8-7.8,6.2-8.1,3.7-21.2-.1-23.4-6.9-.3-.9-.9-2-1.4-2.6-2.2-2.4-2.6-11.8-.8-17,2.3-6.4,7.4-11.1,13.4-12.3,1.2-.3,2.6-.5,3-.6,1.4-.3,7.2.2,8.6.8" />
    <path id="path2" class="st2"
      d="M198.5,1.3c-.5.6-1.2,4.4-1.5,8.4-.1,1.3-.4,2.4-.6,2.5-.2.1-.3,1.2-.3,2.5,0,1.3-.3,4.1-.6,6.3-.7,4.4-.4,6.2,1,6.2s2-1.4,2-2.8.5-3.9,1-7.4c.6-3.5,1.2-7.7,1.4-9.4.2-1.7.5-3.6.6-4.3.4-2.1-1.7-3.5-3-2M166.4,10.2c-.5.6-.4.9.7,2.7,3,4.5,5,7.4,6,8.7.7.8,2,2.4,2.9,3.6,1.4,1.8,1.8,2,2.4,1.7,1.2-.7.9-2-1.3-5-3.6-4.8-3.9-5.3-5.8-8.1-2.7-4-3.9-4.9-5-3.5M235.1,11.2c-.4.2-1.3,1.2-2,2.3-.7,1-1.5,2.2-1.8,2.5-3.1,3.8-6.9,9.8-6.9,10.8,0,2.7,2.3.9,6.1-4.8,1.5-2.3,3.5-5,5.5-7.8,1.3-1.8,1.5-2.8.5-3.2-.8-.3-.6-.3-1.5.2M173.6,44.6c-6.7,1.8-9,9.6-4.5,14.7,2.6,2.9,3.2,3,15.7,3.1h11c0,.1,0-9.1,0-9.1v-9.2h-10c-7.8-.1-10.5,0-12.2.4M205.3,44.5c-.7.7-.7,17.3,0,17.9.5.5,18.9.3,22.1-.2,8.4-1.3,8.5-14.8.2-17.5-2.7-.9-21.5-1-22.4-.2M224.4,47c1,1.2,0,1.4-6.4,1.4s-7.5-.3-6.1-1.7c.6-.6,12-.3,12.5.3M190.8,47.4c1.5,1-.5,1.4-6.4,1.4s-7.5-.4-6.3-1.5c.5-.5,11.9-.4,12.7,0M108,90c-.4.4-1.1,1.8-1.4,3-.4,1.2-.8,2.3-1,2.4-.5.3-.5,2.9,0,3.2.5.3,196,.3,196.4,0,.8-.5-.8-7.1-2.1-8.9-.8-1-190.9-.7-191.9.3" />
    <path id="path4" class="st4"
      d="M212.6,46.7c-.4.4-.2.7.6.8.4,0,.8,0,.8-.3,0-.4-1.1-.8-1.4-.5M119.4,304.7c-4.5.6-13,6.1-13,8.5s-.4,1-.9,1.6c-.5.7-1.1,2.4-1.4,4.3-1.9,11.3,3,20.3,12.9,23.7,4.6,1.6,12.9.3,15-2.2.3-.4,1-.9,1.6-1.2,3-1.6,6.5-8.3,7-13.6,1.3-12.5-8.9-22.7-21.2-21.1M279.9,305.2c-6.2,2-10.8,7-12.7,13.6-1.2,4.2-.7,11.2,1,13.1.3.4.7,1.1.8,1.7,1.2,4.8,9.7,10,16.4,10,15.8,0,24.7-22.6,13.2-33.3-2.8-2.6-4.4-3.9-5-3.9s-1.3-.4-2.1-.8c-2.4-1.2-8.4-1.4-11.5-.4M129.3,308c1,.3,1.7.8,2.1,1.6.8,1.6.2,1.8-2.6.9-3.6-1.2-11.1-.6-13.8,1.1-6.3,4-8.8,8.6-7.8,14.4.5,2.5.1,2.9-1.2,1.4-1.1-1.3-1.2-3.5-.1-8.6,1.7-8.8,12.6-13.9,23.3-10.8M291.9,307.9c2.5.9,3.3,1.5,3.3,2.5s-1.7,1-3.2.2c-.7-.4-2.4-.6-5.7-.6-10.5,0-17.1,6.6-16.1,16.2.3,2.9-.1,3.5-1.3,1.8-1-1.4-1-3.1-.2-7.8,1-5.5,3.7-8.7,10.3-12.3,1.8-1,10-1,12.9,0" />
    <path id="path5" class="st3"
      d="M95.6,352.7c.2,3.6,9.6,12.1,13.4,12.1s.7.2.8.4c.1.2,1.1.4,2.1.4h1.8l-.2,1.2c-.1.7-.2,6-.2,11.8,0,9.1,0,10.6-.6,10.6s-.6.5-.6,2.2,0,2.1.8,2c.6-.2.8,0,1.1,1.1.1.7.9,2,1.8,2.8.8.8,1.5,1.7,1.5,1.9,0,.5-.2.5,10.8.7,9.4.2,14.5,0,14.3-.7,0-.2.4-.8.9-1.3,1.6-1.6,2.4-2.7,2.4-3.3s.2-.6.4-.6.3-4.9.1-14.2l-.3-14.2h114.3s-.1,10.1-.1,10.1c-.1,10.9-.2,11.9-1.1,11.9s-.6.4-.6,1.1c0,.9,0,1,.4.5.3-.4.4-.2.4.9,0,.8.2,1.5.4,1.5s.4.7.3,1.9c-.1,1.4,0,1.9.4,1.8.3-.1.5.1.5.7s.3,1,.7,1.1c1,.4,1.7,1.1,1.7,1.9s3,1.1,14.4.9q11.6-.2,11.6-.7c0-.2.5-.9,1.2-1.5.7-.7,1.2-1.5,1.2-1.8s.2-.6.4-.6c.5,0,.9-2.5.9-4.8,0-1-.1-7-.3-13.3l-.2-11.5h1.5c2.2,0,8.5-2.1,8.5-2.9,0-.2.3-.3.6-.3,1.5,0,6.4-5.8,7.9-9.3.3-.7-5-.7-107.5-.7s-107.8.1-107.8.3" />
    <path id="path6" class="st5"
      d="M227.6,43.4c0,.3-4.2.4-11.5.4h-11.5s11.4.2,11.4.2l11.4.2,1.8,1.1c2.4,1.4,3.6,2.9,4.4,5.3q.7,2,.8.7c.1-.7,0-1.3-.1-1.3s-.3-.2-.3-.4c0-1.5-3.8-5.2-5.4-5.2s-.6-.3-.7-.7c-.1-.4-.2-.5-.2-.3M173,44c-.1.2-.7.3-1.2.2-.7-.2-1,0-1,.3s-.2.7-.5.8c-.3,0-.4.3-.2.5.2.2.6,0,.9-.3,1.2-1.2,4.6-1.5,15.1-1.4,5.6,0,10.2,0,10-.2-.3-.5-22.9-.4-23.2.1M204.6,51.8c0,3.1,0,4.3.1,2.7,0-1.6,0-4.1,0-5.6,0-1.5-.1-.2-.1,2.9M212,47.4v1h6.2c6.2,0,7.2-.2,6.2-1.4-.4-.5-1.6-.6-5.9-.5-3,0-5.2.1-5,.2.8.3.6.9-.3.9s-.8-.2-.6-.6c.1-.3,0-.6-.2-.6s-.4.4-.4,1M168.1,47.4c-.3.3-.7,1.1-1,1.9-.2.7-.6,1.4-.9,1.6-.3.2-.3.4,0,.8.4.4.6,0,.9-1.3.3-1,.7-2.1,1.1-2.5.3-.4.6-.8.5-.9,0,0-.4,0-.7.4M178.1,47.3c-1.2,1.2.3,1.5,6.3,1.5s7.9-.5,6.4-1.4c-.8-.5-12.2-.6-12.7,0M166.1,55c-.1.4,0,.8.1.9.2.1.6.8.9,1.5.3.7.9,1.6,1.4,2q.8.7.2,0c-.9-1-2.3-4.5-2-4.8.1-.1.1-.2,0-.2s-.4.3-.5.6M234,55.4c0,.4-.6,1.8-1.3,3-1,1.8-1.1,2.1-.4,1.5,1-.9,2.2-4,1.9-4.7-.1-.3-.2-.2-.2.2M229,61.8c-.9.5-1.4,1-1.1,1,.3,0,1.2-.4,2-1,1.9-1.3,1.2-1.2-.9,0M171.8,62.4c0,.2,0,.5.2.9.2.3.4.4.4.1,0-.3.3-.5.7-.6.6-.1.5-.2-.2-.4-.5-.1-1-.1-1.1,0M175.1,62.9c.5.5,2.1.5,7.1.3,1.8,0,3.4,0,3.7.2.2.2.5.1.5-.1,0-.7-1.2-.8-6.6-.8-3.6,0-5,.1-4.7.4M214.1,62.8c-.4.2-.2.3.6.3.6,0,2.8,0,4.7,0,5.5.1,7,0,7-.3s-11.6-.5-12.3,0M107.8,89.3c-1.1,1.3-1.8,2.6-1.7,3.4,0,.4.5-.2,1-1.4.7-1.4,1.2-2.1,1.9-2.3.5-.1,1.3-.3,1.7-.4.4,0,.2-.2-.6-.2-1,0-1.6.2-2.2.9M115.3,88.9c.6.4,173,.4,173.2,0,.1-.2-38.9-.3-86.7-.3s-86.7.1-86.5.3M294.1,89.1c.4.1,1,.1,1.4,0,.4-.1,0-.2-.7-.2s-1.1,0-.7.2M299.7,89.5c1,1.1,2.5,5.3,2.8,7.3,0,.6.4,1,.9,1.1.7.1.7,0,.1-.3-.5-.3-.7-.9-.7-2s-.2-1.6-.4-1.7c-.2,0-.5-.6-.5-1.2,0-.6-.2-1-.4-.9s-.3-.1-.3-.5c0-.8-1.2-2.6-1.7-2.6s-.2.3.2.7M105.1,94.2c-.8.6-.9,1.6-.3,2,.2.1.4,0,.4-.3s.2-.7.4-.7c.2,0,.4-.4.3-.8-.1-.6-.3-.6-.8-.1M104.6,97.6c-.1.5-.1,1,0,1.2.2.2.4-.2.4-.8,0-1.4,0-1.5-.5-.3M156.5,99.5c25,0,65.9,0,90.8,0s4.4-.1-45.5-.1-70.3,0-45.3.1M300,99.6c0,.5,1.9.6,2.1,0,.1-.2-.3-.4-1-.4-.6,0-1.2,0-1.2.3M120,303.6c-.6.2-1.6.3-2.2.4-3,0-10,4.9-11.7,8-2.9,5.1-2.8,5-3.3,10.2-.3,3.3-.3,5.3,0,5.8.2.4.6,1.6.8,2.7s1,2.8,1.6,3.8c.6,1,1.2,2,1.2,2.2,0,1.1,6.7,5.7,10.2,6.9,4.8,1.7,13.6.4,15.8-2.2.3-.3,1.2-1,2-1.4,5.6-2.9,9.1-18.3,5.5-24.2-.4-.7-.8-1.5-.8-1.8s-.4-1.1-1-1.7c-.5-.6-1.1-1.3-1.3-1.6-.7-1.1-5.1-4.7-5.8-4.7s-1-.4-1.3-.9c-.9-1.4-7.3-2.3-9.8-1.5M283.4,303.4c-.4,0-1.8.4-3,.6-6,1.3-11.1,6-13.4,12.3-1.9,5.2-1.5,14.6.8,17,.5.5,1.1,1.7,1.4,2.6,2.2,6.7,15.4,10.6,23.4,6.9,3.1-1.4,7.8-5.2,7.8-6.2s.5-.8,1-1.5c.6-.7,1-1.4,1-1.7s.4-1.2.8-2.1c3.4-6.6,0-20.1-5.9-23.5-.4-.2-1.4-1-2.3-1.7-2.6-2.1-8.2-3.4-11.6-2.7M125.8,305c6,1.4,10.7,5,13,10,3.8,8.2,1,21.2-5.2,24.4-.6.3-1.3.9-1.6,1.2-2.1,2.6-10.4,3.8-15,2.2-9.9-3.4-14.7-12.4-12.9-23.7.3-1.9.8-3.6,1.4-4.3.5-.6.9-1.4.9-1.6s.9-1.3,1.9-2.4c4.9-5.2,11.1-7.2,17.5-5.8M291.4,305.6c.9.5,1.8.8,2.1.8.6,0,2.2,1.2,5,3.9,11.5,10.7,2.6,33.3-13.2,33.3s-15.2-5.2-16.4-10c-.1-.6-.5-1.3-.8-1.7-2.4-2.7-2.1-11.2.5-17.3,3.2-7.5,16-12.6,22.8-9M115.6,308.1c-6.8,2.9-9.7,7.4-10.3,15.7-.2,2.2,0,2.6.8,3.6,1.3,1.5,1.6,1.1,1.2-1.4-1-5.7,1.4-10.3,7.8-14.4,2.7-1.7,10.2-2.3,13.8-1.1,2.8.9,3.4.7,2.6-.9-1.2-2.3-11.6-3.3-15.8-1.5M278.9,307.9c-6.7,3.6-9.4,6.8-10.3,12.3-.8,4.8-.8,6.4.2,7.8,1.2,1.7,1.6,1.1,1.3-1.8-1-9.6,5.6-16.3,16.1-16.2,3.3,0,5,.2,5.7.6,2.3,1.3,4.4.1,2.6-1.4-2.4-1.9-12.8-2.8-15.6-1.3" />
  </g>
</svg>