<svg id="svg" version="1.1" xmlns="http://www.w3.org/2000/svg" xmlns:xlink="http://www.w3.org/1999/xlink" width="400"
    height="400" viewBox="0, 0, 400,400">
    <g id="svgg">
        <path id="path0"
            d="M218.080 30.820 C 217.500 31.750,183.430 32.070,182.515 31.155 C 181.837 30.477,178.881 30.376,178.249 31.008 C 177.399 31.858,177.342 42.000,178.186 42.000 C 178.524 42.000,178.800 42.180,178.800 42.400 C 178.800 43.077,220.821 42.910,221.718 42.230 C 223.892 40.581,222.165 29.262,219.949 30.632 C 219.738 30.762,219.340 30.683,219.066 30.455 C 218.705 30.155,218.432 30.256,218.080 30.820 M308.829 30.746 C 308.250 31.827,274.581 32.124,273.514 31.057 C 273.002 30.545,271.663 30.539,269.265 31.038 C 268.189 31.262,268.009 41.206,269.062 42.300 C 269.787 43.054,311.104 42.999,312.100 42.243 C 312.704 41.785,312.800 40.995,312.800 36.505 C 312.800 30.888,312.513 30.056,310.769 30.610 C 310.237 30.779,309.781 30.693,309.593 30.389 C 309.371 30.030,309.159 30.129,308.829 30.746 M87.683 31.049 C 87.419 31.331,87.194 33.778,87.122 37.161 L 87.000 42.801 108.900 42.801 L 130.800 42.800 130.800 37.080 C 130.800 33.398,130.641 31.201,130.353 30.913 C 129.869 30.429,127.307 30.671,126.539 31.272 C 125.782 31.865,91.884 31.696,91.400 31.096 C 90.889 30.463,88.262 30.429,87.683 31.049 M128.000 87.992 L 75.400 88.200 73.795 89.060 C 70.650 90.744,68.461 93.632,67.677 97.131 C 67.032 100.010,66.991 170.024,67.633 172.040 C 69.070 176.553,71.541 179.144,75.666 180.463 C 77.478 181.043,320.223 180.986,322.378 180.406 C 325.433 179.583,328.426 176.691,329.740 173.292 C 330.833 170.465,330.722 97.349,329.621 94.924 C 328.510 92.475,325.881 89.826,323.491 88.745 L 321.400 87.800 251.000 87.792 C 212.280 87.788,156.930 87.878,128.000 87.992 M323.600 89.438 C 326.000 90.556,327.639 92.176,328.823 94.600 L 329.800 96.600 329.800 134.400 L 329.800 172.200 328.876 174.076 C 327.728 176.407,325.991 178.135,323.622 179.302 L 321.800 180.200 199.600 180.304 C 88.022 180.399,77.221 180.352,75.340 179.762 C 72.775 178.957,70.727 177.299,69.300 174.871 L 68.200 173.000 68.079 136.200 C 68.013 115.960,68.071 98.456,68.208 97.302 C 68.640 93.665,71.811 90.063,75.600 88.906 C 76.582 88.607,113.535 88.497,199.400 88.540 L 321.800 88.600 323.600 89.438 M101.520 209.316 C 99.088 209.998,96.413 212.333,95.037 214.975 L 93.800 217.350 93.800 239.575 L 93.800 261.800 94.748 263.897 C 95.943 266.541,98.057 268.465,100.963 269.552 L 103.230 270.400 198.755 270.400 C 267.074 270.400,294.668 270.275,295.640 269.960 C 299.319 268.771,301.546 266.905,303.062 263.741 C 304.200 261.364,304.200 217.836,303.062 215.459 C 301.546 212.295,299.319 210.429,295.640 209.240 C 293.782 208.639,103.668 208.714,101.520 209.316 M295.558 220.562 C 296.955 221.826,296.597 223.671,294.771 224.615 C 293.788 225.124,281.361 225.200,199.674 225.200 L 105.708 225.200 104.654 224.371 C 102.848 222.950,103.485 220.455,105.800 219.886 C 108.720 219.168,294.751 219.831,295.558 220.562 M295.600 238.000 C 296.763 239.163,296.618 240.590,295.238 241.573 L 294.077 242.400 200.012 242.400 C 104.795 242.400,104.814 242.400,103.906 241.040 C 103.363 240.227,103.594 238.806,104.400 238.000 C 105.195 237.205,105.733 237.200,200.000 237.200 C 294.267 237.200,294.805 237.205,295.600 238.000 M295.600 255.200 C 296.716 256.316,296.613 257.775,295.346 258.771 L 294.292 259.600 200.000 259.600 L 105.708 259.600 104.654 258.771 C 103.434 257.811,103.264 256.234,104.262 255.131 C 105.351 253.928,294.396 253.996,295.600 255.200 M45.843 286.967 C 45.976 287.315,46.261 287.600,46.476 287.600 C 47.002 287.600,46.673 286.691,46.075 286.492 C 45.782 286.394,45.693 286.577,45.843 286.967 M43.621 288.064 C 41.585 289.257,38.836 292.400,39.829 292.400 C 40.221 292.400,41.200 291.278,41.200 290.829 C 41.200 290.593,41.425 290.399,41.700 290.398 C 41.975 290.397,42.765 289.867,43.455 289.220 C 44.145 288.573,44.798 288.131,44.906 288.239 C 45.013 288.347,45.208 288.157,45.338 287.817 C 45.642 287.024,45.317 287.071,43.621 288.064 M353.232 287.900 C 353.214 288.395,353.335 288.814,353.500 288.831 C 353.665 288.847,354.115 288.922,354.500 288.995 C 354.899 289.072,355.200 288.887,355.200 288.565 C 355.200 288.254,354.855 288.000,354.433 288.000 C 354.012 288.000,353.576 287.775,353.465 287.500 C 353.354 287.225,353.249 287.405,353.232 287.900 M355.600 289.431 C 355.600 289.778,356.140 290.602,356.800 291.262 C 357.460 291.922,358.005 292.763,358.012 293.131 C 358.023 293.739,358.061 293.736,358.431 293.103 C 358.708 292.626,358.702 292.247,358.411 291.903 C 356.868 290.081,356.400 289.437,356.400 289.139 C 356.400 288.952,356.220 288.800,356.000 288.800 C 355.780 288.800,355.600 289.084,355.600 289.431 M358.800 294.800 L 358.800 296.000 229.100 296.000 C 147.446 296.001,97.770 296.146,95.000 296.394 C 73.429 298.320,57.230 315.394,57.044 336.400 L 57.000 341.400 60.818 341.513 C 64.456 341.622,64.680 341.580,65.587 340.613 L 66.539 339.600 99.241 339.600 C 133.613 339.600,133.200 339.580,133.200 341.229 C 133.200 341.456,159.313 341.600,200.400 341.600 C 259.149 341.600,267.600 341.526,267.600 341.014 C 267.600 339.655,268.937 339.600,301.728 339.600 L 334.308 339.600 334.963 340.600 L 335.618 341.600 342.309 341.582 C 348.594 341.566,353.240 340.974,352.545 340.278 C 352.392 340.125,352.657 340.000,353.133 340.000 C 353.610 340.000,354.000 339.820,354.000 339.600 C 354.000 339.380,354.219 339.200,354.487 339.200 C 355.011 339.200,356.800 337.296,356.800 336.738 C 356.800 336.552,357.040 336.400,357.332 336.400 C 357.625 336.400,358.106 335.950,358.400 335.400 C 358.694 334.850,359.085 334.400,359.268 334.400 C 359.450 334.400,359.600 333.770,359.600 333.000 C 359.600 332.230,359.773 331.600,359.984 331.600 C 360.224 331.600,360.377 324.898,360.392 313.800 C 360.407 301.965,360.278 296.000,360.008 296.000 C 359.783 296.000,359.600 295.460,359.600 294.800 C 359.600 294.140,359.420 293.600,359.200 293.600 C 358.980 293.600,358.800 294.140,358.800 294.800 M37.485 299.048 C 37.043 299.491,37.146 328.319,37.591 328.595 C 37.867 328.765,38.000 323.953,38.000 313.824 C 38.000 305.561,37.940 298.800,37.867 298.800 C 37.793 298.800,37.622 298.912,37.485 299.048 M40.676 335.747 C 40.503 336.378,40.460 336.993,40.581 337.114 C 40.998 337.531,41.260 336.869,41.125 335.737 L 40.990 334.600 40.676 335.747 "
            stroke="none" fill="#848484" fill-rule="evenodd"></path>
        <path id="path1"
            d="M75.600 88.908 C 72.271 89.921,69.100 93.142,68.381 96.241 C 68.180 97.107,68.015 113.834,68.010 133.876 L 68.000 169.952 75.100 164.772 C 79.005 161.923,84.720 157.765,87.800 155.532 C 93.557 151.357,98.136 148.013,101.072 145.838 C 101.992 145.157,104.133 143.610,105.829 142.400 C 109.721 139.625,118.912 132.914,123.591 129.431 C 124.796 128.534,126.236 127.491,126.791 127.113 C 127.346 126.735,129.354 125.295,131.253 123.913 C 133.152 122.531,136.816 119.870,139.395 118.000 C 141.974 116.130,144.940 113.970,145.986 113.200 C 148.083 111.656,153.140 107.987,157.014 105.200 C 158.390 104.210,161.200 102.177,163.258 100.683 C 165.316 99.189,168.530 96.859,170.400 95.507 C 172.270 94.154,175.216 92.002,176.948 90.724 L 180.095 88.400 128.548 88.441 C 93.331 88.469,76.556 88.617,75.600 88.908 M225.342 89.512 C 224.206 90.494,220.236 93.443,215.843 96.569 C 214.939 97.211,209.990 100.811,204.844 104.569 C 195.151 111.647,191.511 114.278,188.343 116.498 C 187.321 117.214,183.290 120.140,179.384 123.000 C 175.478 125.860,171.364 128.840,170.241 129.622 C 169.118 130.404,165.140 133.287,161.400 136.030 C 150.685 143.886,146.696 146.781,143.690 148.884 C 142.969 149.388,141.169 150.703,139.690 151.807 C 137.434 153.491,133.608 156.272,127.592 160.600 C 126.980 161.040,124.371 162.930,121.793 164.800 C 116.576 168.585,114.722 169.921,106.254 176.000 L 100.404 180.200 148.800 180.302 C 194.469 180.397,197.238 180.364,197.929 179.702 C 198.633 179.027,200.682 177.531,208.000 172.351 C 209.870 171.027,211.850 169.608,212.400 169.197 C 216.079 166.451,223.656 160.926,227.200 158.406 C 229.510 156.764,232.480 154.599,233.800 153.594 C 235.120 152.590,237.704 150.695,239.541 149.384 C 241.379 148.073,243.386 146.640,244.002 146.200 C 246.555 144.377,250.470 141.550,254.800 138.405 C 269.894 127.440,273.435 124.877,275.000 123.783 C 275.957 123.113,277.249 122.182,277.870 121.714 C 279.016 120.850,281.926 118.712,287.000 115.006 C 288.540 113.881,292.373 111.079,295.517 108.780 C 298.662 106.481,301.542 104.420,301.917 104.200 C 302.293 103.980,303.950 102.794,305.600 101.564 C 309.465 98.684,314.150 95.269,318.722 92.000 C 320.721 90.570,322.367 89.288,322.379 89.150 C 322.435 88.487,316.680 88.401,273.250 88.412 L 226.600 88.423 225.342 89.512 M328.609 107.357 C 327.954 107.821,325.434 109.651,323.009 111.425 C 317.486 115.464,309.416 121.286,305.985 123.705 C 304.547 124.719,303.034 125.920,302.623 126.374 C 302.212 126.828,301.679 127.212,301.438 127.226 C 301.197 127.240,299.110 128.674,296.800 130.414 C 294.490 132.153,290.710 134.910,288.400 136.541 C 284.781 139.096,282.166 141.033,280.590 142.327 C 280.364 142.513,279.644 143.009,278.990 143.430 C 278.335 143.851,275.599 145.816,272.909 147.798 C 266.790 152.305,261.393 156.233,252.200 162.871 C 248.240 165.731,243.076 169.494,240.724 171.234 C 238.373 172.974,234.520 175.748,232.162 177.399 L 227.875 180.400 274.038 180.398 C 323.355 180.395,322.045 180.449,325.234 178.314 C 330.107 175.051,330.034 175.682,329.907 138.157 L 329.800 106.514 328.609 107.357 "
            stroke="none" fill="#94bbdc" fill-rule="evenodd"></path>
        <path id="path2"
            d="M101.457 0.600 C 101.127 0.930,100.686 1.200,100.477 1.200 C 100.268 1.200,99.355 1.920,98.448 2.800 C 97.541 3.680,96.696 4.400,96.571 4.400 C 94.302 4.400,92.554 10.649,92.151 20.200 C 91.940 25.214,91.761 26.449,91.066 27.716 C 90.281 29.147,90.272 29.294,90.892 30.316 L 91.549 31.400 108.604 31.600 C 117.984 31.710,125.915 31.656,126.229 31.480 C 126.912 31.098,127.067 23.012,126.400 22.600 C 126.175 22.461,126.000 20.537,126.000 18.200 C 126.000 15.863,125.825 13.939,125.600 13.800 C 125.380 13.664,125.200 12.775,125.200 11.825 C 125.200 10.766,124.964 9.902,124.591 9.593 C 124.235 9.297,124.081 8.774,124.221 8.333 C 124.380 7.832,124.283 7.617,123.930 7.690 C 123.639 7.750,123.398 7.484,123.396 7.097 C 123.391 6.225,120.782 2.836,120.100 2.815 C 119.825 2.807,119.600 2.620,119.600 2.400 C 119.600 2.180,119.330 2.000,119.000 2.000 C 118.670 2.000,118.400 1.820,118.400 1.600 C 118.400 1.380,118.152 1.200,117.849 1.200 C 117.546 1.200,117.074 0.930,116.800 0.600 C 116.065 -0.286,102.343 -0.286,101.457 0.600 M191.913 1.000 C 191.320 1.550,190.639 2.000,190.399 2.000 C 189.733 2.000,188.000 3.881,188.000 4.605 C 188.000 4.958,187.843 5.150,187.652 5.032 C 187.152 4.723,185.600 6.172,185.600 6.947 C 185.600 7.306,185.420 7.600,185.200 7.600 C 184.980 7.600,184.800 7.949,184.800 8.376 C 184.800 8.803,184.620 9.264,184.400 9.400 C 184.180 9.536,184.000 10.141,184.000 10.744 C 184.000 11.347,183.834 12.011,183.632 12.220 C 183.430 12.429,183.160 14.580,183.033 17.000 C 182.905 19.420,182.661 23.470,182.489 26.000 C 182.308 28.656,182.329 30.811,182.537 31.100 C 183.049 31.809,217.211 31.829,217.920 31.120 C 218.501 30.539,218.556 28.544,218.000 28.200 C 217.777 28.062,217.600 26.204,217.600 24.000 C 217.600 21.796,217.423 19.938,217.200 19.800 C 216.979 19.664,216.800 17.870,216.800 15.800 C 216.800 13.730,216.621 11.936,216.400 11.800 C 216.180 11.664,216.000 11.023,216.000 10.376 C 216.000 9.729,215.865 9.199,215.700 9.197 C 215.341 9.193,214.400 7.256,214.400 6.520 C 214.400 6.048,213.894 5.827,213.100 5.953 C 212.935 5.979,212.800 5.724,212.800 5.387 C 212.800 4.591,210.209 2.000,209.413 2.000 C 209.076 2.000,208.800 1.820,208.800 1.600 C 208.800 1.380,208.524 1.200,208.187 1.200 C 207.851 1.200,207.471 0.930,207.345 0.600 C 206.883 -0.603,193.262 -0.250,191.913 1.000 M283.345 0.600 C 283.218 0.930,282.817 1.200,282.453 1.200 C 282.090 1.200,281.568 1.560,281.293 2.000 C 281.018 2.440,280.557 2.800,280.269 2.800 C 279.502 2.800,276.601 6.350,276.324 7.628 C 276.256 7.943,276.110 8.290,276.000 8.400 C 275.226 9.174,274.800 10.727,274.800 12.771 C 274.800 14.081,274.620 15.264,274.400 15.400 C 274.171 15.542,274.000 17.604,274.000 20.224 C 274.000 23.008,273.843 24.800,273.600 24.800 C 272.876 24.800,273.098 31.075,273.833 31.357 C 274.181 31.491,282.080 31.600,291.387 31.600 L 308.308 31.600 308.954 30.614 C 309.759 29.385,309.786 27.119,309.012 25.623 C 308.668 24.958,308.352 22.928,308.252 20.743 C 308.029 15.879,307.326 10.434,306.847 9.856 C 306.638 9.605,306.455 9.264,306.439 9.098 C 306.275 7.425,302.900 2.800,301.842 2.800 C 301.586 2.800,301.117 2.440,300.800 2.000 C 300.483 1.560,299.903 1.200,299.512 1.200 C 299.120 1.200,298.800 0.930,298.800 0.600 C 298.800 -0.300,283.690 -0.300,283.345 0.600 M362.928 57.200 C 362.928 58.630,363.001 59.215,363.089 58.500 C 363.178 57.785,363.178 56.615,363.089 55.900 C 363.001 55.185,362.928 55.770,362.928 57.200 M57.100 216.700 L 46.400 216.813 46.400 238.978 L 46.400 261.142 48.536 261.409 C 53.992 262.091,72.897 261.424,74.817 260.482 C 77.284 259.271,79.533 257.007,80.658 254.600 C 81.983 251.765,82.130 226.902,80.839 223.892 C 78.894 219.353,73.303 215.966,68.627 216.493 C 68.172 216.544,62.985 216.637,57.100 216.700 M328.065 216.848 C 323.708 217.573,319.744 221.425,318.793 225.859 C 317.936 229.852,318.446 252.267,319.442 254.420 C 320.674 257.082,322.553 259.020,325.127 260.284 L 327.400 261.400 338.900 261.532 L 350.400 261.664 350.400 239.032 L 350.400 216.400 340.300 216.447 C 334.745 216.472,329.239 216.653,328.065 216.848 "
            stroke="none" fill="#f07320" fill-rule="evenodd"></path>
        <path id="path3"
            d="M124.000 8.751 C 124.000 8.944,124.256 9.314,124.569 9.574 C 125.035 9.961,125.098 9.898,124.922 9.223 C 124.712 8.419,124.000 8.055,124.000 8.751 M91.590 24.881 C 91.484 25.916,91.545 26.615,91.726 26.434 C 91.907 26.253,91.993 25.407,91.919 24.553 L 91.783 23.000 91.590 24.881 M47.024 42.613 C 46.596 42.936,45.752 43.200,45.147 43.200 C 44.542 43.200,43.936 43.380,43.800 43.600 C 43.664 43.820,43.203 44.000,42.776 44.000 C 42.349 44.000,42.000 44.180,42.000 44.400 C 42.000 44.620,41.725 44.800,41.389 44.800 C 40.503 44.800,37.200 48.240,37.200 49.163 C 37.200 49.595,36.841 50.060,36.400 50.200 C 35.960 50.340,35.600 50.802,35.600 51.227 C 35.600 51.652,35.420 52.000,35.200 52.000 C 34.954 52.000,34.800 53.992,34.800 57.176 C 34.800 60.196,34.967 62.456,35.200 62.600 C 35.420 62.736,35.600 63.207,35.600 63.647 C 35.600 64.087,35.780 64.336,36.000 64.200 C 36.220 64.064,36.400 64.117,36.400 64.317 C 36.400 64.517,36.940 65.246,37.600 65.937 C 38.260 66.628,38.800 67.329,38.800 67.496 C 38.801 68.013,40.667 70.000,41.152 70.000 C 41.404 70.000,41.968 70.180,42.405 70.400 C 42.842 70.620,43.558 70.980,43.995 71.200 C 44.432 71.420,45.152 71.600,45.595 71.600 C 46.379 71.600,46.400 71.846,46.400 80.837 C 46.400 89.468,46.452 90.141,47.200 91.091 C 47.887 91.964,48.000 92.714,48.000 96.400 C 48.000 100.086,47.887 100.836,47.200 101.709 C 46.408 102.715,46.400 103.332,46.400 159.789 L 46.400 216.852 59.300 216.789 C 74.505 216.715,75.511 216.916,78.811 220.674 C 81.541 223.783,81.600 224.177,81.596 239.133 C 81.592 254.383,81.502 254.878,78.178 258.095 C 74.780 261.384,74.692 261.400,59.700 261.400 L 46.400 261.400 46.400 273.853 L 46.400 286.307 47.300 286.549 C 47.914 286.714,308.533 286.932,349.900 286.802 C 350.289 286.800,350.400 284.019,350.400 274.232 L 350.400 261.664 338.900 261.532 L 327.400 261.400 325.127 260.284 C 319.239 257.393,318.629 255.553,318.478 240.246 C 318.258 217.873,319.624 216.410,340.729 216.403 L 350.458 216.400 350.398 153.900 C 350.365 119.525,350.351 86.945,350.369 81.500 L 350.400 71.600 352.000 71.600 C 352.880 71.600,353.600 71.420,353.600 71.200 C 353.600 70.980,353.977 70.800,354.438 70.800 C 355.822 70.800,359.600 67.804,359.600 66.706 C 359.600 66.415,359.960 65.917,360.400 65.600 C 360.840 65.283,361.200 64.703,361.200 64.312 C 361.200 63.920,361.380 63.600,361.600 63.600 C 361.820 63.600,362.000 63.071,362.000 62.424 C 362.000 61.777,362.180 61.136,362.400 61.000 C 362.620 60.864,362.831 59.368,362.869 57.676 L 362.938 54.600 363.200 57.200 L 363.462 59.800 363.531 57.375 C 363.586 55.441,363.438 54.777,362.800 54.092 C 362.360 53.620,362.000 52.776,362.000 52.217 C 362.000 51.658,361.820 51.200,361.600 51.200 C 361.380 51.200,361.200 50.855,361.200 50.433 C 361.200 50.012,361.012 49.604,360.782 49.527 C 360.552 49.451,360.335 48.998,360.299 48.522 C 360.263 48.045,360.091 47.744,359.917 47.851 C 359.743 47.959,359.600 47.773,359.600 47.438 C 359.600 47.102,359.254 46.643,358.831 46.417 C 358.408 46.190,357.823 45.779,357.531 45.503 C 356.535 44.560,353.527 43.200,352.439 43.200 C 351.841 43.200,351.004 42.936,350.576 42.613 C 349.175 41.553,313.172 41.729,312.400 42.800 C 311.497 44.053,270.645 44.053,269.200 42.800 C 267.753 41.545,222.291 41.545,221.507 42.800 C 221.018 43.583,220.574 43.600,200.104 43.600 C 179.733 43.600,179.180 43.580,178.400 42.800 C 177.618 42.018,177.067 42.000,154.296 42.000 C 131.426 42.000,130.983 42.015,130.493 42.800 C 130.004 43.583,129.560 43.600,108.997 43.600 C 88.533 43.600,87.980 43.580,87.200 42.800 C 86.129 41.729,48.424 41.554,47.024 42.613 M323.491 88.745 C 325.881 89.826,328.510 92.475,329.621 94.924 C 330.816 97.556,330.822 170.948,329.628 173.735 C 328.035 177.451,325.013 179.875,320.880 180.751 C 317.211 181.529,78.384 181.368,75.806 180.586 C 71.921 179.408,69.433 177.069,67.971 173.219 C 66.744 169.992,66.774 98.768,68.003 95.483 C 68.931 93.004,71.122 90.270,72.940 89.322 C 76.275 87.584,71.277 87.647,199.400 87.725 L 321.400 87.800 323.491 88.745 M294.623 208.433 C 298.803 209.161,302.794 212.491,304.063 216.310 C 304.746 218.366,305.037 257.083,304.397 260.800 C 303.651 265.130,301.212 268.311,297.220 270.158 L 295.400 271.000 198.800 271.000 L 102.200 271.000 100.240 270.035 C 97.345 268.610,95.613 266.899,94.338 264.204 L 93.201 261.800 93.209 239.600 C 93.217 218.359,93.252 217.325,94.008 215.659 C 95.782 211.748,99.133 209.083,103.120 208.411 C 106.158 207.899,291.678 207.920,294.623 208.433 "
            stroke="none" fill="#b8221a" fill-rule="evenodd"></path>
        <path id="path4"
            d="M21.748 90.715 C 21.957 91.054,20.466 91.767,18.728 92.159 C 18.138 92.292,17.395 92.662,17.076 92.982 C 16.756 93.301,16.384 93.450,16.248 93.314 C 16.111 93.178,16.000 93.277,16.000 93.533 C 16.000 93.790,15.745 94.000,15.432 94.000 C 14.615 94.000,11.369 98.240,10.879 99.950 C 9.811 103.674,9.600 104.862,9.600 107.146 L 9.600 109.600 7.300 109.659 C 3.926 109.746,3.701 109.771,3.369 110.100 C 3.203 110.265,2.647 110.400,2.133 110.400 C 1.620 110.400,1.200 110.580,1.200 110.800 C 1.200 111.020,0.930 111.200,0.600 111.200 C 0.071 111.200,0.000 115.856,0.000 150.702 L 0.000 190.205 1.300 190.802 C 3.745 191.927,28.907 191.663,31.102 190.491 C 32.987 189.484,35.600 187.117,35.600 186.417 C 35.600 186.169,35.960 185.580,36.400 185.108 C 36.857 184.617,37.200 183.696,37.200 182.958 C 37.200 182.248,37.397 181.601,37.637 181.521 C 37.877 181.441,38.102 180.903,38.137 180.326 C 38.172 179.749,38.337 179.362,38.505 179.465 C 38.841 179.672,38.699 121.831,38.362 120.696 C 38.246 120.309,37.938 119.778,37.676 119.516 C 37.414 119.254,37.200 118.660,37.200 118.195 C 37.200 117.731,36.840 116.964,36.400 116.492 C 35.960 116.020,35.600 115.440,35.600 115.203 C 35.600 114.452,34.331 112.800,33.754 112.800 C 33.449 112.800,33.200 112.620,33.200 112.400 C 33.200 112.180,32.930 112.000,32.600 112.000 C 32.270 112.000,31.999 111.865,31.997 111.700 C 31.993 111.309,30.028 110.400,29.187 110.400 C 28.827 110.400,28.397 110.265,28.231 110.100 C 27.895 109.767,27.678 109.744,24.100 109.659 L 21.600 109.600 21.600 106.900 C 21.601 104.631,21.753 104.023,22.557 103.089 L 23.512 101.978 35.244 102.012 C 49.167 102.053,48.000 102.565,48.000 96.413 C 48.000 89.862,49.239 90.400,34.154 90.400 C 27.223 90.400,21.640 90.542,21.748 90.715 M350.192 91.300 C 350.069 91.795,350.020 94.360,350.084 97.000 L 350.200 101.800 363.800 102.008 C 371.280 102.122,377.258 102.257,377.084 102.308 C 376.911 102.359,377.136 102.794,377.584 103.275 C 378.240 103.979,378.400 104.686,378.400 106.875 L 378.400 109.600 375.900 109.646 C 374.525 109.672,373.220 109.726,373.000 109.767 C 371.931 109.968,370.178 110.549,370.000 110.762 C 369.661 111.165,368.035 112.000,367.587 112.000 C 367.028 112.000,365.200 113.842,365.200 114.405 C 365.200 114.648,364.992 114.719,364.738 114.562 C 364.464 114.393,364.385 114.451,364.542 114.706 C 364.688 114.942,364.536 115.407,364.204 115.739 C 363.872 116.071,363.600 116.626,363.600 116.971 C 363.600 117.317,363.420 117.600,363.200 117.600 C 362.980 117.600,362.800 118.110,362.800 118.733 C 362.800 119.357,362.676 119.990,362.525 120.141 C 361.931 120.736,361.869 123.161,361.738 151.100 C 361.643 171.225,361.730 180.000,362.024 180.000 C 362.257 180.000,362.336 180.180,362.200 180.400 C 362.064 180.620,362.143 180.800,362.376 180.800 C 362.609 180.800,362.800 181.520,362.800 182.400 C 362.800 183.280,362.980 184.000,363.200 184.000 C 363.420 184.000,363.600 184.320,363.600 184.712 C 363.600 185.103,363.960 185.683,364.400 186.000 C 364.840 186.317,365.200 186.772,365.200 187.010 C 365.200 187.632,367.559 189.782,369.200 190.655 C 370.992 191.608,397.477 191.813,399.100 190.886 L 400.000 190.372 400.000 150.854 L 400.000 111.335 399.100 110.893 C 397.145 109.932,396.186 109.741,392.900 109.661 L 390.400 109.600 390.394 106.100 C 390.389 102.727,389.892 100.478,388.618 98.052 C 387.926 96.733,384.384 93.083,384.086 93.381 C 383.964 93.502,383.580 93.348,383.232 93.038 C 382.885 92.728,381.854 92.276,380.941 92.033 C 380.029 91.790,379.179 91.323,379.054 90.996 C 378.857 90.484,376.832 90.400,364.620 90.400 L 350.415 90.400 350.192 91.300 M39.086 335.048 C 38.841 335.292,39.730 336.400,40.171 336.400 C 40.297 336.400,40.400 336.040,40.400 335.600 C 40.400 334.841,39.620 334.513,39.086 335.048 M65.443 341.433 C 65.011 342.558,65.164 382.400,65.600 382.400 C 65.820 382.400,66.000 383.047,66.000 383.837 C 66.000 384.938,66.187 385.324,66.800 385.484 C 67.240 385.599,67.600 385.944,67.600 386.251 C 67.600 387.233,69.329 390.566,70.382 391.612 C 70.942 392.169,71.592 392.967,71.827 393.385 C 72.061 393.804,72.596 394.339,73.015 394.573 C 73.433 394.808,74.252 395.489,74.835 396.086 C 75.418 396.683,75.983 397.084,76.090 396.976 C 76.198 396.869,76.514 397.055,76.792 397.390 C 77.070 397.726,77.546 398.000,77.849 398.000 C 78.152 398.000,78.400 398.180,78.400 398.400 C 78.400 398.620,78.745 398.800,79.167 398.800 C 79.588 398.800,80.008 399.025,80.100 399.300 C 80.376 400.129,117.305 400.237,118.131 399.411 C 118.468 399.075,119.026 398.800,119.371 398.800 C 119.717 398.800,120.000 398.620,120.000 398.400 C 120.000 398.180,120.320 398.000,120.712 398.000 C 121.103 398.000,121.683 397.640,122.000 397.200 C 122.317 396.760,122.762 396.400,122.988 396.399 C 123.610 396.398,126.000 394.246,126.000 393.688 C 126.000 393.420,126.180 393.200,126.400 393.200 C 126.620 393.200,126.800 392.919,126.800 392.576 C 126.800 392.233,126.980 392.064,127.200 392.200 C 127.420 392.336,127.600 392.167,127.600 391.824 C 127.600 391.481,127.784 391.200,128.009 391.200 C 128.233 391.200,128.620 390.756,128.867 390.213 C 129.115 389.669,129.471 389.320,129.658 389.436 C 129.846 389.552,130.000 389.266,130.000 388.800 C 130.000 388.334,130.180 388.064,130.400 388.200 C 130.627 388.340,130.800 388.004,130.800 387.424 C 130.800 386.861,130.980 386.400,131.200 386.400 C 131.420 386.400,131.600 385.860,131.600 385.200 C 131.600 384.540,131.780 384.000,132.000 384.000 C 132.220 384.000,132.400 383.100,132.400 382.000 C 132.400 380.900,132.580 380.000,132.800 380.000 C 133.421 380.000,133.342 341.902,132.720 341.280 C 131.890 340.450,65.762 340.600,65.443 341.433 M268.080 341.280 C 267.457 341.903,267.379 381.600,268.000 381.600 C 268.220 381.600,268.400 382.320,268.400 383.200 C 268.400 384.080,268.580 384.800,268.800 384.800 C 269.020 384.800,269.200 385.155,269.200 385.588 C 269.200 386.981,271.420 390.558,272.045 390.172 C 272.240 390.051,272.400 390.284,272.400 390.688 C 272.400 391.093,272.760 391.683,273.200 392.000 C 273.640 392.317,274.000 392.815,274.000 393.106 C 274.000 393.607,276.029 395.914,276.282 395.700 C 276.623 395.411,277.212 395.657,277.000 396.000 C 276.864 396.220,277.033 396.400,277.376 396.400 C 277.719 396.400,278.000 396.580,278.000 396.800 C 278.000 397.020,278.270 397.200,278.600 397.200 C 278.930 397.200,279.200 397.380,279.200 397.600 C 279.200 397.820,279.560 398.000,280.000 398.000 C 280.440 398.000,280.800 398.180,280.800 398.400 C 280.800 398.620,281.083 398.800,281.429 398.800 C 281.774 398.800,282.327 399.070,282.657 399.400 C 283.173 399.916,285.833 400.000,301.641 400.000 C 317.613 400.000,320.055 399.921,320.255 399.400 C 320.382 399.070,320.700 398.800,320.963 398.800 C 321.665 398.800,323.593 397.848,323.597 397.500 C 323.599 397.335,323.870 397.200,324.200 397.200 C 324.530 397.200,324.800 397.020,324.800 396.800 C 324.800 396.580,324.984 396.400,325.209 396.400 C 325.629 396.400,330.000 392.196,330.000 391.792 C 330.000 391.668,330.360 391.180,330.800 390.708 C 331.240 390.236,331.600 389.613,331.600 389.325 C 331.600 389.036,331.780 388.800,332.000 388.800 C 332.220 388.800,332.406 388.485,332.413 388.100 C 332.428 387.235,333.385 385.918,333.740 386.273 C 333.883 386.416,334.000 386.154,334.000 385.690 C 334.000 385.227,334.180 384.736,334.400 384.600 C 334.620 384.464,334.800 383.553,334.800 382.576 C 334.800 381.599,334.980 380.800,335.200 380.800 C 336.014 380.800,335.719 341.978,334.900 341.357 C 333.923 340.615,268.820 340.540,268.080 341.280 "
            stroke="none" fill="#343434" fill-rule="evenodd"></path>
        <path id="path5"
            d="M178.400 42.800 C 179.180 43.580,179.733 43.600,200.104 43.600 L 221.008 43.600 221.551 42.700 C 221.978 41.993,221.981 41.907,221.567 42.300 C 220.892 42.941,178.800 43.039,178.800 42.400 C 178.800 42.180,178.530 42.000,178.200 42.000 C 177.733 42.000,177.778 42.178,178.400 42.800 M311.800 42.400 C 311.640 42.658,304.022 42.802,290.276 42.806 C 276.392 42.810,269.208 42.947,269.600 43.200 C 269.967 43.437,278.236 43.590,290.929 43.594 C 311.889 43.600,312.800 43.543,312.800 42.229 C 312.800 41.847,312.064 41.973,311.800 42.400 M87.600 43.200 C 88.430 43.737,129.868 43.737,130.200 43.200 C 130.364 42.935,123.106 42.802,108.724 42.806 C 94.551 42.810,87.209 42.947,87.600 43.200 M102.900 87.900 C 117.145 87.958,140.455 87.958,154.700 87.900 C 168.945 87.842,157.290 87.794,128.800 87.794 C 100.310 87.794,88.655 87.842,102.900 87.900 M124.500 181.100 C 137.645 181.158,159.155 181.158,172.300 181.100 C 185.445 181.041,174.690 180.994,148.400 180.994 C 122.110 180.994,111.355 181.041,124.500 181.100 M251.100 181.100 C 263.695 181.159,284.305 181.159,296.900 181.100 C 309.495 181.041,299.190 180.993,274.000 180.993 C 248.810 180.993,238.505 181.041,251.100 181.100 M103.120 208.411 C 99.133 209.083,95.782 211.748,94.008 215.659 C 93.252 217.325,93.217 218.359,93.209 239.600 L 93.201 261.800 94.338 264.204 C 95.613 266.899,97.345 268.610,100.240 270.035 L 102.200 271.000 198.800 271.000 L 295.400 271.000 297.220 270.158 C 301.212 268.311,303.651 265.130,304.397 260.800 C 305.037 257.083,304.746 218.366,304.063 216.310 C 302.794 212.491,298.803 209.161,294.623 208.433 C 291.678 207.920,106.158 207.899,103.120 208.411 M295.640 209.240 C 299.319 210.429,301.546 212.295,303.062 215.459 C 304.200 217.836,304.200 261.364,303.062 263.741 C 301.546 266.905,299.319 268.771,295.640 269.960 C 294.668 270.275,267.074 270.400,198.755 270.400 L 103.230 270.400 100.963 269.552 C 98.057 268.465,95.943 266.541,94.748 263.897 L 93.800 261.800 93.800 239.575 L 93.800 217.350 95.037 214.975 C 96.413 212.333,99.088 209.998,101.520 209.316 C 103.668 208.714,293.782 208.639,295.640 209.240 M105.800 219.886 C 103.485 220.455,102.848 222.950,104.654 224.371 L 105.708 225.200 199.674 225.200 C 281.361 225.200,293.788 225.124,294.771 224.615 C 296.597 223.671,296.955 221.826,295.558 220.562 C 294.751 219.831,108.720 219.168,105.800 219.886 M104.400 238.000 C 103.594 238.806,103.363 240.227,103.906 241.040 C 104.814 242.400,104.795 242.400,200.012 242.400 L 294.077 242.400 295.238 241.573 C 296.618 240.590,296.763 239.163,295.600 238.000 C 294.805 237.205,294.267 237.200,200.000 237.200 C 105.733 237.200,105.195 237.205,104.400 238.000 M104.262 255.131 C 103.264 256.234,103.434 257.811,104.654 258.771 L 105.708 259.600 200.000 259.600 L 294.292 259.600 295.346 258.771 C 296.613 257.775,296.716 256.316,295.600 255.200 C 294.396 253.996,105.351 253.928,104.262 255.131 M46.655 287.000 C 46.782 287.330,46.686 287.600,46.443 287.600 C 46.199 287.600,45.994 287.375,45.986 287.100 C 45.978 286.825,45.714 287.050,45.400 287.600 C 44.900 288.474,44.606 288.429,44.753 287.500 C 44.779 287.335,44.601 287.200,44.357 287.200 C 44.114 287.200,44.022 287.480,44.153 287.823 C 44.406 288.481,42.604 290.364,41.700 290.387 C 41.425 290.394,41.200 290.630,41.200 290.912 C 41.200 291.193,40.840 291.683,40.400 292.000 C 39.960 292.317,39.600 292.764,39.600 292.992 C 39.600 293.221,39.240 293.632,38.800 293.907 C 37.879 294.482,37.697 296.713,38.500 297.579 C 38.900 298.010,38.900 298.061,38.500 297.835 C 38.103 297.611,38.000 301.184,38.000 315.128 L 38.000 332.702 38.900 333.367 C 39.518 333.822,39.643 334.099,39.300 334.249 C 38.487 334.603,38.730 335.143,39.600 334.916 C 40.184 334.763,40.408 334.909,40.428 335.453 C 40.454 336.144,40.481 336.140,40.784 335.400 C 41.047 334.757,41.140 334.915,41.256 336.200 C 41.364 337.396,41.627 337.900,42.300 338.195 C 42.795 338.412,43.200 338.828,43.200 339.118 C 43.200 339.409,43.365 339.545,43.566 339.421 C 43.767 339.297,43.992 339.331,44.066 339.498 C 44.323 340.078,46.607 341.092,47.481 341.014 C 47.966 340.971,48.271 341.086,48.158 341.268 C 48.045 341.451,49.988 341.600,52.476 341.600 L 57.000 341.599 57.041 336.500 C 57.208 315.415,73.385 298.324,95.000 296.394 C 97.770 296.146,147.446 296.001,229.100 296.000 L 358.800 296.000 358.794 294.300 C 358.789 293.055,358.684 292.761,358.400 293.200 C 358.065 293.718,358.011 293.709,358.006 293.131 C 358.003 292.763,357.460 291.922,356.800 291.262 C 356.140 290.602,355.600 289.801,355.600 289.483 C 355.600 289.165,355.285 288.905,354.900 288.907 C 353.437 288.913,353.199 288.774,353.168 287.900 C 353.151 287.405,353.046 287.225,352.935 287.500 C 352.824 287.775,352.433 287.997,352.067 287.994 C 351.542 287.989,351.515 287.915,351.941 287.645 C 353.117 286.900,344.952 286.856,198.835 286.830 C 115.804 286.815,47.779 286.712,47.668 286.602 C 47.205 286.139,46.440 286.440,46.655 287.000 M65.600 340.600 C 65.083 341.150,64.872 341.600,65.130 341.600 C 65.389 341.600,65.600 341.420,65.600 341.200 C 65.600 340.576,132.095 340.655,132.720 341.280 C 133.060 341.620,133.200 341.628,133.200 341.309 C 133.200 339.568,133.841 339.600,99.241 339.600 L 66.539 339.600 65.600 340.600 M268.300 340.032 C 267.915 340.256,267.600 340.737,267.600 341.100 C 267.600 341.613,267.707 341.653,268.080 341.280 C 268.704 340.656,334.215 340.577,334.600 341.200 C 334.736 341.420,335.021 341.600,335.233 341.600 C 335.445 341.600,335.324 341.150,334.963 340.600 L 334.308 339.600 301.654 339.612 C 280.219 339.620,268.759 339.764,268.300 340.032 "
            stroke="none" fill="#747071" fill-rule="evenodd"></path>
        <path id="path6"
            d="M127.400 30.400 C 127.536 30.620,127.986 30.800,128.400 30.800 C 128.814 30.800,129.264 30.620,129.400 30.400 C 129.545 30.166,129.130 30.000,128.400 30.000 C 127.670 30.000,127.255 30.166,127.400 30.400 M269.300 30.412 C 268.805 30.611,268.400 30.848,268.400 30.938 C 268.400 31.240,272.195 30.707,272.580 30.351 C 273.079 29.890,270.480 29.938,269.300 30.412 M176.948 90.724 C 175.216 92.002,172.270 94.154,170.400 95.507 C 168.530 96.859,165.316 99.189,163.258 100.683 C 161.200 102.177,158.390 104.210,157.014 105.200 C 153.140 107.987,148.083 111.656,145.986 113.200 C 144.940 113.970,141.974 116.130,139.395 118.000 C 136.816 119.870,133.152 122.531,131.253 123.913 C 129.354 125.295,127.346 126.735,126.791 127.113 C 126.236 127.491,124.796 128.534,123.591 129.431 C 118.912 132.914,109.721 139.625,105.829 142.400 C 104.133 143.610,101.992 145.157,101.072 145.838 C 98.146 148.005,93.566 151.351,87.800 155.532 C 84.720 157.766,79.050 161.897,75.200 164.713 L 68.200 169.832 68.293 171.358 C 68.487 174.545,70.604 177.420,74.153 179.319 C 75.733 180.164,76.299 180.204,88.000 180.307 L 100.200 180.415 106.149 176.107 C 109.422 173.738,113.226 170.990,114.602 170.000 C 115.979 169.010,119.215 166.670,121.793 164.800 C 124.371 162.930,126.980 161.040,127.592 160.600 C 133.608 156.272,137.434 153.491,139.690 151.807 C 141.169 150.703,142.969 149.388,143.690 148.884 C 146.696 146.781,150.685 143.886,161.400 136.030 C 165.140 133.287,169.118 130.404,170.241 129.622 C 171.364 128.840,175.478 125.860,179.384 123.000 C 183.290 120.140,187.321 117.214,188.343 116.498 C 191.511 114.278,195.151 111.647,204.844 104.569 C 209.990 100.811,214.939 97.211,215.843 96.569 C 220.236 93.443,224.206 90.494,225.342 89.512 L 226.600 88.423 203.348 88.412 L 180.095 88.400 176.948 90.724 M317.746 92.656 C 311.780 97.000,309.799 98.453,305.800 101.423 C 304.040 102.731,302.293 103.980,301.917 104.200 C 301.542 104.420,298.662 106.481,295.517 108.780 C 292.373 111.079,288.540 113.881,287.000 115.006 C 281.926 118.712,279.016 120.850,277.870 121.714 C 277.249 122.182,275.957 123.113,275.000 123.783 C 273.435 124.877,269.894 127.440,254.800 138.405 C 250.158 141.777,246.068 144.728,243.997 146.200 C 240.530 148.663,236.990 151.232,233.800 153.599 C 231.820 155.069,227.950 157.886,225.200 159.860 C 217.432 165.437,212.619 168.956,212.400 169.219 C 212.290 169.352,211.041 170.257,209.624 171.230 C 208.208 172.204,206.298 173.540,205.380 174.200 C 204.463 174.860,202.337 176.378,200.656 177.573 C 198.975 178.769,197.600 179.894,197.600 180.073 C 197.600 180.253,204.412 180.400,212.738 180.400 L 227.875 180.400 232.162 177.399 C 234.520 175.748,238.373 172.974,240.724 171.234 C 243.076 169.494,248.240 165.731,252.200 162.871 C 261.393 156.233,266.790 152.305,272.909 147.798 C 275.599 145.816,278.335 143.851,278.990 143.430 C 279.644 143.009,280.364 142.513,280.590 142.327 C 282.166 141.033,284.781 139.096,288.400 136.541 C 290.710 134.910,294.490 132.153,296.800 130.414 C 299.110 128.674,301.197 127.240,301.438 127.226 C 301.679 127.212,302.218 126.822,302.636 126.360 C 303.054 125.898,305.107 124.307,307.198 122.825 C 312.235 119.253,320.140 113.554,324.600 110.279 C 326.580 108.824,328.623 107.335,329.140 106.969 C 330.053 106.322,330.076 106.165,329.936 101.451 C 329.746 95.006,328.527 92.329,324.731 90.015 C 322.867 88.878,323.008 88.825,317.746 92.656 M36.980 314.000 C 36.980 321.810,37.034 325.005,37.099 321.100 C 37.165 317.195,37.165 310.805,37.099 306.900 C 37.034 302.995,36.980 306.190,36.980 314.000 "
            stroke="none" fill="#a4c3db" fill-rule="evenodd"></path>
    </g>
</svg>