<svg xmlns="http://www.w3.org/2000/svg" viewBox="0 0 512 512" version="1.1">
    <path
        d="M 241.035 38.087 C 178.772 44.082, 124.432 87.536, 105.056 146.827 C 99.593 163.546, 97.598 176.523, 97.572 195.500 C 97.547 213.774, 99.154 224.799, 104.556 243.412 C 121 300.077, 173.018 377.732, 241.230 447.446 L 255.960 462.500 271.259 447 C 339.455 377.910, 387.688 306.194, 405.516 247.378 C 411.476 227.714, 413.394 214.959, 413.390 195 C 413.386 174.375, 411.721 163.420, 405.867 145.500 C 398.064 121.616, 385.776 101.759, 367.453 83.425 C 341.106 57.063, 307.913 41.685, 269.500 38.044 C 257.308 36.889, 253.426 36.895, 241.035 38.087 M 234 91.948 C 202.136 98.721, 175.711 119.322, 161.459 148.500 C 146.941 178.224, 146.742 210.849, 160.898 240.500 C 183.658 288.173, 239.147 312.099, 288.516 295.526 C 345.955 276.245, 375.677 214.635, 354.862 158 C 342.570 124.554, 312.958 99.250, 277.500 91.894 C 265.590 89.422, 245.764 89.447, 234 91.948"
        stroke="none" fill="#bb5361" fill-rule="evenodd" />
    <path
        d="M 234.325 5.095 C 160.903 13.651, 98.027 64.838, 74.529 135.186 C 61.955 172.833, 61.794 211.791, 74.042 253 C 88.231 300.741, 124.761 362.261, 173.482 420.469 C 193.145 443.961, 207.995 459.815, 240.864 492.406 L 255.897 507.311 262.804 501.660 C 272.276 493.911, 311.721 453.669, 327.169 435.995 C 375.852 380.295, 409.104 329.573, 428.779 281 C 450.115 228.326, 452.808 179.467, 436.917 133.381 C 409.820 54.797, 337.042 3.290, 254.289 4.130 C 247.255 4.201, 238.271 4.636, 234.325 5.095 M 241.035 38.087 C 178.772 44.082, 124.432 87.536, 105.056 146.827 C 99.593 163.546, 97.598 176.523, 97.572 195.500 C 97.547 213.774, 99.154 224.799, 104.556 243.412 C 121 300.077, 173.018 377.732, 241.230 447.446 L 255.960 462.500 271.259 447 C 339.455 377.910, 387.688 306.194, 405.516 247.378 C 411.476 227.714, 413.394 214.959, 413.390 195 C 413.386 174.375, 411.721 163.420, 405.867 145.500 C 398.064 121.616, 385.776 101.759, 367.453 83.425 C 341.106 57.063, 307.913 41.685, 269.500 38.044 C 257.308 36.889, 253.426 36.895, 241.035 38.087 M 234 91.948 C 202.136 98.721, 175.711 119.322, 161.459 148.500 C 146.941 178.224, 146.742 210.849, 160.898 240.500 C 183.658 288.173, 239.147 312.099, 288.516 295.526 C 345.955 276.245, 375.677 214.635, 354.862 158 C 342.570 124.554, 312.958 99.250, 277.500 91.894 C 265.590 89.422, 245.764 89.447, 234 91.948 M 242 124.433 C 212.801 130.620, 190.829 152.375, 184.464 181.403 C 182.067 192.334, 182.851 207.542, 186.375 218.500 C 194.064 242.401, 214.970 261.772, 239.258 267.499 C 247.354 269.408, 264.710 269.387, 273 267.458 C 276.575 266.626, 283.775 263.843, 289 261.273 C 296.903 257.386, 299.929 255.164, 307 248.051 C 321.549 233.416, 327.796 219.450, 328.718 199.500 C 329.134 190.491, 328.842 186.896, 327.105 179.637 C 320.857 153.532, 300.132 132.180, 274.500 125.443 C 266.119 123.240, 249.995 122.739, 242 124.433"
        stroke="none" fill="#840c26" fill-rule="evenodd" />
</svg>