<?xml version="1.0" encoding="UTF-8"?>
<svg id="Layer_1" xmlns="http://www.w3.org/2000/svg" version="1.1" viewBox="0 0 1024 1024">
  <!-- Generator: Adobe Illustrator 29.3.1, SVG Export Plug-In . SVG Version: 2.1.0 Build 151)  -->
  <defs>
    <style>
      .st0 {
        fill: #fff;
      }

      .st1 {
        fill: #398f43;
      }
    </style>
  </defs>
  <path class="st1" d="M87.6,530.6c0,236.9,192,428.9,428.9,428.9s428.9-192,428.9-428.9S753.4,101.7,516.5,101.7,87.6,293.7,87.6,530.6h0Z"/>
  <path class="st0" d="M148.7,530.6c0,203.1,164.7,367.8,367.8,367.8s367.8-164.7,367.8-367.8-164.7-367.8-367.8-367.8-367.8,164.7-367.8,367.8h0Z"/>
  <path class="st1" d="M192.1,530.6c0,179.2,145.2,324.4,324.4,324.4s324.4-145.2,324.4-324.4-145.2-324.4-324.3-324.5c-179.2,0-324.4,145.2-324.5,324.3h0c0,0,0,.2,0,.2Z"/>
  <path class="st0" d="M715.6,588.6h-141.1v141.1h-115.9v-141.1h-141.1v-115.9h141.1v-141.1h115.9v141.1h141.1v115.9Z"/>
</svg>