<?xml version="1.0" encoding="UTF-8"?>
<svg id="Layer_1" xmlns="http://www.w3.org/2000/svg" version="1.1" xmlns:xlink="http://www.w3.org/1999/xlink"
	viewBox="0 0 511.9 432.1">
	<!-- Generator: Adobe Illustrator 29.3.1, SVG Export Plug-In . SVG Version: 2.1.0 Build 151)  -->
	<defs>
		<style>
			.st0 {
				fill: #ccd7db;
			}

			.st1 {
				fill: #fff;
			}

			.st2 {
				fill: #36464e;
			}

			.st3 {
				fill: #6f848f;
			}

			.st4 {
				fill: #8fa3ad;
			}

			.st5 {
				fill: #eaecee;
			}

			.st6 {
				fill: #0387cf;
			}

			.st7 {
				fill: #445a64;
			}

			.st8 {
				fill: #28b5f5;
			}

			.st9 {
				fill: #0376bb;
			}

			.st10 {
				fill: #ebedef;
			}

			.st11 {
				fill: #546e7a;
			}

			.st12 {
				fill: #afbdc4;
			}

			.st13 {
				fill: #d74315;
			}
		</style>
	</defs>
	<path class="st7"
		d="M462.1,175.8c8.6,9,17.1,18,25.8,26.9,13.9,14.2,22.2,30.9,23.7,51.1.4,25.2.4,50.3,0,75.9-2.1,10.1-3.6,19.5-5.7,28.9-1.1,4.9-4.4,8.6-10.3,9.4-17.6,0-34.7,0-51.9,0-20-.1-40.1-.5-60.2,4-10.9,1.8-21.3,3.6-31.8,5.5-21.2,3.8-42.4,7.3-64.2,6.7-26.4-.7-52.9,0-79.3-.3-8.1,0-16.2-1.2-24.2-2.4-18.7-2.9-37.3-6.3-56.3-9.4-9.6-1.3-18.7-3.7-27.8-3.8-27.9-.5-55.9-.2-84.2-.2-2.8-2.4-5.3-4.6-7.4-6.9.8-.2,1.3-.3,1.7-.6,12.9-9.9,25.8-19.7,38.5-29.7,4.1-3.2,7.7-7,12-10.5,1.4-.2,2.5-.2,4-.2,17.8,0,35.1.1,52.4.1,13.8,0,21.1-11.3,15.3-23.9-3.2-7.1-6.8-14-10-21.4,7.7-6.2,15.1-12.3,22.8-18.1,25.3-19.5,50.8-38.8,76.1-58.3,9.4-7.3,18.7-14.8,28.3-22.2.7-.1,1.2-.2,2.1-.2,11.8.4,23.1.5,34.4,1,27.5,1.3,55.1,2.4,82.5,4.2,15.4,1,30.6,3.1,45.9,4.7,10,1.1,19.5,1.1,25.1-9.8,7.9,0,15.3-.1,22.7-.2M293.5,256c-23.7,0-47.3,0-71,0-17.3,0-34.7,0-52,0-12.6,0-19.8,11.4-14.9,23,1.1,2.6,2.5,5.1,3.7,7.6,8.9,17.9,17.9,35.7,26.8,53.7,3.5,7.1,8.4,11.7,16.9,11.7,35.3,0,70.6,0,106,0,7.2,0,12.5-3.1,15.7-9.5,10.4-20.7,20.9-41.4,31-62.2,6.2-12.7-1.2-24.3-15.3-24.3-15.3,0-30.7,0-47,0M382.8,315.7c4.1,1.4,8.2,4.1,12.3,4.1,28.2.4,56.3.2,84.5.2,9.7,0,16.3-6.6,16.4-16.2,0-10.5,0-21,0-31.5,0-9.6-6.7-16.3-16.2-16.3-23,0-46,0-69,0-7.1,0-12.2,3-15.4,9.1-5.4,10.5-10.7,21-15.8,31.7-3.1,6.6-2.5,12.9,3.2,19Z" />
	<path class="st11"
		d="M8.2,361c-5.7-9.1-5.7-19.5-7.1-29.6-.2-1.3-.3-2.6-.8-4.1C0,321.3,0,315.6.3,309.2c.4-14.7.5-28.6.6-42.5,0-.6-.6-1.1-.9-1.7,0-3.4,0-6.7,0-10.5.4-2,1.1-3.5,1.3-5,2.1-20.8,12.9-36.9,27.3-51.2,7.1-7.1,13.9-14.6,21.6-22.1,8.1-.2,15.6-.2,23.2,0,3.6,7.4,9.3,10.7,17.2,9.9,8.8-.8,17.5-2.2,26.2-2.9,17.9-1.6,35.7-3.3,53.6-4.2,26.2-1.3,52.5-1.9,78.7-2.7-9.3,7.4-18.6,14.9-28,22.1-25.3,19.5-50.8,38.8-76.1,58.3-7.6,5.8-15.1,11.9-22.9,18.1-.3.2-.7.2-.8-.1-1.1-2.4-2.3-4.5-3.2-6.6-3.6-8.6-10-12.1-19.2-12-21.8.3-43.6,0-65.5.1-10.6,0-17.1,6.6-17.2,17.1-.1,9.8,0,19.7,0,29.5,0,10.9,6.6,17.2,17.5,17.3,8.8,0,17.6.1,26.5.2-3.8,3.5-7.5,7.3-11.6,10.5-12.7,10-25.6,19.8-38.5,29.7-.4.3-.9.4-1.7.6Z" />
	<path class="st3" d="M0,265.5c.3,0,.9.6.9,1.2,0,13.9-.2,27.9-.6,42.1C0,294.7,0,280.3,0,265.5Z" />
	<path class="st0"
		d="M73.1,175.9c-7.4,0-14.8,0-22.7,0,8.1-17.7,16.4-35.5,25.4-52.9,7.3-14,15.8-27.3,23.2-41.3,9.1-17.1,22.9-26.8,42.1-28.6,16.6-1.6,33.3-2.8,50.9-4.1,7.7-.3,14.5-1,21.3-.9,35.6.2,71.2.6,106.8.9,21.5.1,42.9,1.5,63.8,7.2,4.5,1.2,8.6,4,12.9,6.7-3.6,3.9-7.2,7.2-11.1,10.4-1.1-.1-1.8-.1-2.8-.4-3.3-1.1-6.3-2.1-9.4-2.8-21.9-4.7-44.3-5.4-66.5-5.6-42.3-.3-84.6,0-126.9,1-13.9.3-27.7,2.9-41.6,4.6-9,1.1-16,5.3-21.2,13.2-16,24.2-29,50.1-41.4,76.3-2.5,5.3-3.7,10.6-2.8,16.4Z" />
	<path class="st10"
		d="M320,48.7c-35.6,0-71.2-.4-106.8-.6-6.8,0-13.6.6-20.8.9-.5-.2-.5-.4-.5-1.3,0-16.4,0-32-.1-47.6,42.4,0,84.9,0,127.7.4.4,16.1.4,31.8.4,47.4,0,.2,0,.4,0,.8Z" />
	<path class="st9"
		d="M191.4,0c.5,15.7.5,31.3.6,47.4-21.3.5-42.6.6-63.9.5-9.3,0-15.8-6.8-16.1-16.2-.1-5.2-.1-10.3,0-15.5C112.3,6.7,118.9.1,128.6,0c20.8-.1,41.6,0,62.8,0Z" />
	<path class="st13"
		d="M320.5,48c-.5-15.7-.5-31.3-.4-47.4C341.1,0,362,0,383,0c10.3,0,16.8,6.6,17,16.8,0,4.5,0,9,0,13.5-.1,11.2-6.5,17.6-17.7,17.7-20.5,0-40.9,0-61.8,0Z" />
	<path class="st12"
		d="M385.9,73.3c3.6-3.3,7.2-6.6,10.9-10.2,4.9,4.9,10.6,9.6,14.1,15.5,10.8,18.3,21.1,36.9,31.1,55.7,7.1,13.3,13.4,27.1,20,41.1-7.4.4-14.8.5-22.7.2-1.1-5.1-.6-10.3-2.6-14.3-10.6-21.5-21.3-42.8-32.9-63.8-4.8-8.7-11.9-16.2-17.9-24.3Z" />
	<path class="st8"
		d="M73.4,176.2c-1.2-6,0-11.3,2.5-16.6,12.4-26.2,25.3-52.1,41.4-76.3,5.2-7.8,12.2-12.1,21.2-13.2,13.8-1.7,27.7-4.4,41.6-4.6,42.3-.9,84.6-1.3,126.9-1,22.2.2,44.6.9,66.5,5.6,3.1.7,6.1,1.6,9.2,3.1-1.7,2.1-3.4,3.6-5.2,5-31.2,24-62.5,48-93.7,72-11,8.5-21.9,17.1-32.8,25.7-.4,0-.9.1-1.6.3-26.5,1-52.8,1.5-79,2.8-17.9.9-35.8,2.6-53.6,4.2-8.8.8-17.5,2.1-26.2,2.9-7.8.8-13.5-2.5-17.2-9.9Z" />
	<path class="st4"
		d="M294,256c15.8,0,31.2,0,46.5,0,14.1,0,21.5,11.7,15.3,24.3-10.2,20.8-20.7,41.5-31,62.2-3.2,6.4-8.5,9.5-15.7,9.5-35.3,0-70.6,0-106,0-8.5,0-13.4-4.6-16.9-11.7-8.9-17.9-17.9-35.8-26.8-53.7-1.3-2.5-2.6-5-3.7-7.6-4.9-11.6,2.4-22.9,14.9-23,17.3-.1,34.7,0,52,0,23.7,0,47.3,0,71.5,0Z" />
	<path class="st6"
		d="M251.4,175.9c10.5-8.6,21.3-17.3,32.3-25.7,31.2-24,62.5-48,93.7-72,1.8-1.4,3.5-3,5.5-4.8.9-.3,1.6-.2,2.7-.1,6.4,8.1,13.5,15.6,18.3,24.3,11.6,20.9,22.3,42.3,32.9,63.8,2,4,1.5,9.2,2.1,14.3-5.1,11.4-14.7,11.3-24.7,10.2-15.3-1.6-30.6-3.7-45.9-4.7-27.5-1.8-55-2.9-82.5-4.2-11.3-.5-22.6-.6-34.4-1Z" />
	<path class="st10"
		d="M382.6,315.4c-5.5-5.8-6.1-12.1-3-18.7,5.1-10.7,10.4-21.2,15.8-31.7,3.2-6.1,8.3-9.1,15.4-9.1,23,.1,46,0,69,0,9.5,0,16.2,6.7,16.2,16.3,0,10.5,0,21,0,31.5,0,9.6-6.7,16.2-16.4,16.2-28.2,0-56.3.2-84.5-.2-4.1,0-8.2-2.7-12.6-4.4Z" />
	<path class="st1"
		d="M60.4,320.2c-9.2,0-18,0-26.9-.1-11-.1-17.5-6.5-17.5-17.3,0-9.8,0-19.7,0-29.5.1-10.6,6.7-17.1,17.2-17.1,21.8,0,43.6.2,65.5-.1,9.3-.1,15.7,3.4,19.2,12,.9,2.1,2.1,4.2,2.9,6.8-12.8,10.1-25.5,19.7-38,29.4-6.4,5-12.6,10.4-18.9,15.7-1.1,0-2.1.2-3.6.3Z" />
	<path class="st2"
		d="M127.7,372c.4,5,.4,10-.1,15.5-9.3-.9-18.1-3.1-26.9-3.3-28.1-.5-56.3-.2-84.4-.2,0-5-.1-10-.2-15.5,27.9-.5,55.9-.8,83.8-.3,9.2.2,18.3,2.5,27.8,3.8Z" />
	<path class="st2"
		d="M495.6,368c.4,5,.4,10-.1,15.5-21,.5-41.5.7-61.9.4-16.6-.2-33.1.1-49.4,4,0-5-.1-10-.2-15.5,19.7-5,39.7-4.7,59.8-4.5,17.1.1,34.3,0,51.9,0Z" />
	<path class="st5"
		d="M64.4,319.9c5.8-5.3,12-10.7,18.4-15.8,12.5-9.8,25.2-19.3,38.1-29.1.3-.1.7,0,.9,0,3.6,7.1,7.1,14,10.4,21.1,5.8,12.6-1.5,23.9-15.3,23.9-17.3,0-34.6,0-52.4-.1Z" />
	<path class="st7"
		d="M16.1,384.5c28.2-.5,56.4-.8,84.5-.3,8.8.2,17.6,2.4,26.8,3.8.4,9.5.7,19,.5,28.5-.2,8.8-6.9,15.4-15.7,15.5-26.8.2-53.6.2-80.4,0-9,0-15.5-6.9-15.7-16.1-.2-10.3,0-20.6,0-31.4Z" />
	<path class="st7"
		d="M384.1,388.5c16.3-4.4,32.8-4.7,49.4-4.5,20.5.2,40.9,0,61.8,0,.5,10.8.7,21.6.5,32.4-.2,8.8-6.9,15.5-15.7,15.5-26.8.2-53.6.2-80.4,0-9,0-15.5-6.9-15.7-16-.2-9,0-18,0-27.4Z" />
</svg>